<?xml version="1.0" encoding="utf-8"?>
<!-- Generator: Adobe Illustrator 24.0.0, SVG Export Plug-In . SVG Version: 6.00 Build 0)  -->
<svg version="1.1" id="Layer_1" xmlns="http://www.w3.org/2000/svg" xmlns:xlink="http://www.w3.org/1999/xlink" x="0px" y="0px"
	 viewBox="0 0 24 24" style="enable-background:new 0 0 24 24;" xml:space="preserve">
<style type="text/css">
	.st0{fill:#FFFFFF;stroke:#000000;stroke-width:0.5;stroke-miterlimit:10;}
</style>
<path class="st0" d="M4,14v-2h7v2H4z M4,10V8h11v2H4z M4,6V4h11v2H4z M13,20v-3.1l5.5-5.5c0.2-0.1,0.3-0.3,0.5-0.3
	c0.2-0.1,0.4-0.1,0.6-0.1c0.2,0,0.4,0,0.6,0.1c0.2,0.1,0.4,0.2,0.5,0.3l0.9,0.9c0.1,0.2,0.2,0.3,0.3,0.5c0.1,0.2,0.1,0.4,0.1,0.6
	s0,0.4-0.1,0.6c-0.1,0.2-0.2,0.4-0.3,0.5L16.1,20H13z M20.5,13.4l-0.9-0.9L20.5,13.4z M14.5,18.5h0.9l3-3L18,15l-0.5-0.4l-3.1,3
	V18.5z M18,15l-0.5-0.4l0.9,0.9L18,15z"/>
</svg>
